<svg width="49" height="48" viewBox="0 0 49 48" fill="none" xmlns="http://www.w3.org/2000/svg">
<path d="M24.2126 23.5684C21.9931 23.5684 20.1772 22.8796 18.7647 21.5019C17.3523 20.1242 16.6461 18.3528 16.6461 16.1879C16.6461 14.0229 17.3523 12.2516 18.7647 10.8739C20.1772 9.49622 21.9931 8.80737 24.2126 8.80737C26.4321 8.80737 28.2481 9.49622 29.6605 10.8739C31.0729 12.2516 31.7791 14.0229 31.7791 16.1879C31.7791 18.3528 31.0729 20.1242 29.6605 21.5019C28.2481 22.8796 26.4321 23.5684 24.2126 23.5684ZM8.0708 39.3627V34.7376C8.0708 33.4911 8.39027 32.425 9.02922 31.5394C9.66817 30.6537 10.4921 29.9813 11.5009 29.522C13.7541 28.538 15.9147 27.7999 17.9829 27.3079C20.051 26.8158 22.1276 26.5698 24.2126 26.5698C26.2976 26.5698 28.3658 26.824 30.4171 27.3325C32.4685 27.8409 34.6207 28.5708 36.8738 29.522C37.9163 29.9813 38.757 30.6537 39.396 31.5394C40.0349 32.425 40.3544 33.4911 40.3544 34.7376V39.3627H8.0708ZM11.0974 36.4105H37.3278V34.7376C37.3278 34.2128 37.1681 33.7125 36.8486 33.2369C36.5291 32.7613 36.134 32.4086 35.6632 32.179C33.511 31.1621 31.5437 30.4651 29.7613 30.0879C27.979 29.7106 26.1294 29.522 24.2126 29.522C22.2958 29.522 20.4294 29.7106 18.6134 30.0879C16.7975 30.4651 14.8302 31.1621 12.7116 32.179C12.2408 32.4086 11.854 32.7613 11.5514 33.2369C11.2487 33.7125 11.0974 34.2128 11.0974 34.7376V36.4105ZM24.2126 20.6162C25.5241 20.6162 26.6087 20.198 27.4662 19.3615C28.3237 18.5251 28.7525 17.4672 28.7525 16.1879C28.7525 14.9086 28.3237 13.8507 27.4662 13.0143C26.6087 12.1778 25.5241 11.7596 24.2126 11.7596C22.9011 11.7596 21.8166 12.1778 20.959 13.0143C20.1015 13.8507 19.6727 14.9086 19.6727 16.1879C19.6727 17.4672 20.1015 18.5251 20.959 19.3615C21.8166 20.198 22.9011 20.6162 24.2126 20.6162Z" fill="black"/>
</svg>
