<svg width="51" height="51" viewBox="0 0 51 51" fill="none" xmlns="http://www.w3.org/2000/svg">
<path d="M14.3389 11.3595C14.4621 13.2119 14.7702 15.0226 15.2633 16.75L12.7982 19.2476C11.956 16.75 11.4219 14.1068 11.237 11.3595H14.3389ZM34.5935 36.3765C36.3396 36.876 38.1268 37.1882 39.9345 37.313V40.4141C37.2229 40.2268 34.6141 39.6857 32.1285 38.8532L34.5935 36.3765ZM16.3109 7.19699H9.12112C7.9913 7.19699 7.06689 8.13356 7.06689 9.27826C7.06689 28.8214 22.6996 44.6599 41.9888 44.6599C43.1186 44.6599 44.043 43.7234 44.043 42.5787V35.315C44.043 34.1703 43.1186 33.2337 41.9888 33.2337C39.4415 33.2337 36.9559 32.8175 34.6552 32.0474C34.4497 31.9642 34.2238 31.9433 34.0184 31.9433C33.4843 31.9433 32.9707 32.1515 32.5599 32.5469L28.0406 37.1257C22.2271 34.1079 17.4613 29.3001 14.5032 23.4101L19.0225 18.8313C19.5977 18.2486 19.762 17.4369 19.5361 16.7084C18.776 14.3774 18.3651 11.8799 18.3651 9.27826C18.3651 8.13356 17.4407 7.19699 16.3109 7.19699Z" fill="white"/>
</svg>
